<?xml version="1.0" standalone="no"?>
<!DOCTYPE svg PUBLIC "-//W3C//DTD SVG 20010904//EN"
 "http://www.w3.org/TR/2001/REC-SVG-20010904/DTD/svg10.dtd">
<svg version="1.0" xmlns="http://www.w3.org/2000/svg"
 width="277.000000pt" height="168.000000pt" viewBox="0 0 277.000000 168.000000"
 preserveAspectRatio="xMidYMid meet">
<metadata>
Created by potrace 1.10, written by Peter Selinger 2001-2011
</metadata>
<g transform="translate(0.000000,168.000000) scale(0.050000,-0.050000)"
fill="#000000" stroke="none">
<path d="M635 2949 c-139 -94 -145 -120 -147 -654 -1 -499 -12 -555 -101 -555
-19 0 -27 -28 -27 -90 0 -62 8 -90 27 -90 90 0 101 -57 102 -556 1 -533 7
-559 146 -653 119 -81 165 -70 165 39 0 62 -8 90 -27 90 -86 0 -96 54 -99 553
-4 453 -6 481 -48 548 l-44 70 44 69 c42 66 44 92 46 545 1 499 12 555 101
555 19 0 27 28 27 90 0 109 -46 120 -165 39z"/>
<path d="M4720 2910 c0 -62 8 -90 27 -90 87 0 97 -55 100 -554 3 -453 5 -479
47 -547 l44 -70 -44 -69 c-42 -66 -44 -94 -49 -548 -5 -499 -14 -552 -98 -552
-15 0 -27 -16 -27 -35 0 -22 -18 -8 -51 40 l-50 75 -1855 0 -1854 0 -45 -66
c-25 -37 -45 -73 -45 -80 0 -8 878 -14 1950 -14 l1950 0 0 -50 c0 -67 66 -67
165 1 139 94 145 120 146 653 1 499 12 556 102 556 19 0 27 28 27 90 0 62 -8
90 -27 90 -89 0 -100 56 -101 555 -2 534 -8 560 -147 654 -119 81 -165 70
-165 -39z"/>
<path d="M884 2877 c5 -13 39 -40 77 -61 95 -51 3536 -48 3614 4 121 80 126
80 -1827 80 -1411 0 -1869 -6 -1864 -23z"/>
<path d="M1373 2360 l-98 -10 -195 -580 c-108 -319 -202 -596 -210 -616 -14
-33 -2 -35 141 -30 l156 6 183 543 183 543 257 -598 257 -598 108 0 c59 0 103
7 98 15 -22 38 -466 1033 -524 1174 l-64 158 -98 2 c-53 0 -141 -3 -194 -9z"/>
<path d="M2641 2295 c-13 -36 -108 -315 -212 -621 l-187 -556 152 6 152 6 194
570 c107 314 201 590 209 615 13 44 10 45 -136 45 l-149 0 -23 -65z"/>
<path d="M3691 2125 c-42 -129 -137 -408 -211 -620 l-134 -385 155 0 156 0
134 405 c74 223 169 502 211 620 l77 215 -155 0 -155 0 -78 -235z"/>
<path d="M3875 1210 l-33 -90 394 0 394 0 33 90 32 90 -393 0 -393 0 -34 -90z"/>
</g>
</svg>
